<svg width="45" height="45" viewBox="0 0 45 45" fill="none" xmlns="http://www.w3.org/2000/svg">
<path d="M4.6875 9.375C4.6875 8.33947 5.52697 7.5 6.5625 7.5H38.4375C39.4731 7.5 40.3125 8.33947 40.3125 9.375V35.625C40.3125 36.6606 39.4731 37.5 38.4375 37.5H6.5625C5.52697 37.5 4.6875 36.6606 4.6875 35.625V9.375Z" stroke="black" stroke-linecap="round" stroke-linejoin="round"/>
<path d="M13.5938 16.875C14.3704 16.875 15 16.2454 15 15.4688C15 14.6921 14.3704 14.0625 13.5938 14.0625C12.8171 14.0625 12.1875 14.6921 12.1875 15.4688C12.1875 16.2454 12.8171 16.875 13.5938 16.875Z" stroke="black" stroke-linecap="round" stroke-linejoin="round"/>
<path d="M14.0625 22.5L18.75 26.25L24.375 19.6875L40.3125 31.875V35.625C40.3125 36.6606 39.4731 37.5 38.4375 37.5H6.5625C5.52697 37.5 4.6875 36.6606 4.6875 35.625V31.875L14.0625 22.5Z" fill="#2F88FF" stroke="black" stroke-linejoin="round"/>
</svg>
