<svg width="35" height="35" viewBox="0 0 35 35" fill="none" xmlns="http://www.w3.org/2000/svg">
<g clip-path="url(#clip0_3_24)">
<path d="M0.876759 17.2905C0.875945 20.2312 1.64432 23.1026 3.10536 25.6334L0.73703 34.2806L9.58633 31.9603C12.0339 33.2927 14.7763 33.9909 17.5631 33.9911H17.5704C26.7701 33.9911 34.2589 26.505 34.2628 17.3037C34.2646 12.845 32.5298 8.65232 29.3779 5.49797C26.2265 2.3439 22.0353 0.605978 17.5697 0.603943C8.36893 0.603943 0.880693 8.0896 0.876894 17.2905" fill="url(#paint0_linear_3_24)"/>
<path d="M0.280806 17.2851C0.279856 20.3316 1.07577 23.3057 2.58891 25.9271L0.135651 34.8843L9.30226 32.4808C11.828 33.8579 14.6716 34.5839 17.5652 34.585H17.5727C27.1025 34.585 34.8603 26.8297 34.8643 17.299C34.866 12.68 33.0687 8.33665 29.8043 5.0693C26.5393 1.80236 22.1983 0.00189922 17.5727 0C8.04131 0 0.284604 7.75426 0.280806 17.2851ZM5.73972 25.4757L5.39745 24.9323C3.95865 22.6446 3.19924 20.0009 3.20032 17.2862C3.20344 9.3644 9.6505 2.91938 17.5781 2.91938C21.4173 2.92101 25.0253 4.4176 27.739 7.13295C30.4526 9.84857 31.9458 13.4584 31.9448 17.2979C31.9413 25.2197 25.4941 31.6655 17.5727 31.6655H17.567C14.9877 31.6641 12.4581 30.9715 10.252 29.6625L9.72701 29.3512L4.28736 30.7773L5.73972 25.4755V25.4757Z" fill="url(#paint1_linear_3_24)"/>
<path d="M13.2509 10.0588C12.9272 9.33943 12.5866 9.32491 12.2787 9.3123C12.0267 9.30145 11.7386 9.30226 11.4507 9.30226C11.1625 9.30226 10.6944 9.41065 10.2987 9.84273C9.90255 10.2752 8.78635 11.3203 8.78635 13.446C8.78635 15.5717 10.3346 17.626 10.5505 17.9146C10.7666 18.2026 13.5394 22.7043 17.931 24.4361C21.5807 25.8753 22.3235 25.5891 23.1156 25.5169C23.9078 25.445 25.6719 24.472 26.0318 23.4632C26.392 22.4544 26.392 21.5897 26.284 21.409C26.1761 21.229 25.8879 21.1209 25.4558 20.9049C25.0236 20.6888 22.8995 19.6435 22.5035 19.4993C22.1074 19.3553 21.8194 19.2834 21.5312 19.716C21.2431 20.1479 20.4157 21.1209 20.1635 21.409C19.9116 21.6978 19.6594 21.7338 19.2275 21.5177C18.7951 21.3009 17.4037 20.8452 15.7528 19.3734C14.4684 18.2282 13.6013 16.814 13.3492 16.3813C13.0972 15.9494 13.3222 15.7153 13.5389 15.5C13.733 15.3064 13.9711 14.9955 14.1873 14.7433C14.4028 14.4909 14.4747 14.3109 14.6187 14.0228C14.7629 13.7344 14.6908 13.482 14.5829 13.2659C14.4747 13.0498 13.6351 10.9131 13.2509 10.0588Z" fill="white"/>
</g>
<defs>
<linearGradient id="paint0_linear_3_24" x1="1677.03" y1="3368.27" x2="1677.03" y2="0.603943" gradientUnits="userSpaceOnUse">
<stop stop-color="#1FAF38"/>
<stop offset="1" stop-color="#60D669"/>
</linearGradient>
<linearGradient id="paint1_linear_3_24" x1="1736.57" y1="3488.43" x2="1736.57" y2="0" gradientUnits="userSpaceOnUse">
<stop stop-color="#F9F9F9"/>
<stop offset="1" stop-color="white"/>
</linearGradient>
<clipPath id="clip0_3_24">
<rect width="35" height="35" fill="white"/>
</clipPath>
</defs>
</svg>
